<svg width="309" height="133" viewBox="0 0 309 133" fill="none" xmlns="http://www.w3.org/2000/svg">
<ellipse cx="37.5" cy="58.5" rx="37.5" ry="58.5" fill="black"/>
<ellipse cx="41" cy="46" rx="3" ry="6" fill="#C4C4C4"/>
<path d="M38 71C38 77.0751 34.4183 82 30 82C25.5817 82 22 77.0751 22 71C22 64.9249 25.5817 60 30 60C34.4183 60 38 64.9249 38 71Z" fill="white"/>
<ellipse cx="274" cy="66.5" rx="35" ry="66.5" fill="black"/>
<ellipse cx="287.5" cy="39.5" rx="3.5" ry="7.5" fill="#C4C4C4"/>
<path d="M284 72.5C284 80.5081 279.747 87 274.5 87C269.253 87 265 80.5081 265 72.5C265 64.4919 269.253 58 274.5 58C279.747 58 284 64.4919 284 72.5Z" fill="white"/>
</svg>
