<svg width="370" height="91" viewBox="0 0 370 91" fill="none" xmlns="http://www.w3.org/2000/svg">
<ellipse cx="65.5" cy="45.5" rx="65.5" ry="45.5" fill="black"/>
<ellipse cx="71.6135" cy="35.7778" rx="5.24" ry="4.66667" fill="#C4C4C4"/>
<path d="M66.3734 55.2223C66.3734 59.9474 60.1174 63.7779 52.4001 63.7779C44.6828 63.7779 38.4268 59.9474 38.4268 55.2223C38.4268 50.4972 44.6828 46.6667 52.4001 46.6667C60.1174 46.6667 66.3734 50.4972 66.3734 55.2223Z" fill="white"/>
<ellipse cx="304.5" cy="45.5" rx="65.5" ry="45.5" fill="black"/>
<ellipse cx="329.765" cy="27.0264" rx="6.55" ry="5.13158" fill="#C4C4C4"/>
<path d="M323.214 49.6051C323.214 55.0844 315.255 59.5262 305.436 59.5262C295.617 59.5262 287.657 55.0844 287.657 49.6051C287.657 44.1259 295.617 39.6841 305.436 39.6841C315.255 39.6841 323.214 44.1259 323.214 49.6051Z" fill="white"/>
</svg>
