<svg width="364" height="228" viewBox="0 0 364 228" fill="none" xmlns="http://www.w3.org/2000/svg">
<path d="M219.5 10H215.97L213.297 12.3046C180.011 40.9997 133.964 52.0761 93.0896 61.9081C92.0018 62.1698 90.9177 62.4306 89.8375 62.6908C69.6051 67.5649 50.1806 72.3914 35.8816 79.5467C21.2834 86.8517 9.5 97.9511 9.5 116C9.5 146.569 31.1293 172.38 62.0337 190.012C93.2097 207.8 135.644 218.5 182 218.5C228.356 218.5 270.79 207.8 301.966 190.012C332.871 172.38 354.5 146.569 354.5 116C354.5 88.0609 344.786 61.1553 322.284 41.3568C299.903 21.665 266.012 10 219.5 10Z" fill="black" stroke="white" stroke-width="19"/>
</svg>
